<svg
   xmlns:svg="http://www.w3.org/2000/svg"
   xmlns="http://www.w3.org/2000/svg"
   xmlns:sodipodi="http://sodipodi.sourceforge.net/DTD/sodipodi-0.dtd"
   xmlns:inkscape="http://www.inkscape.org/namespaces/inkscape"
   viewBox="0 0 190.29999 180.30899"
   class="svg_logo"
   width="420"
   height="420"
   version="1.1">
  <defs
     id="defs7">
    <linearGradient
       id="grad"
       gradientTransform="matrix(1.1287219,0,0,1.1347731,-37.79825,-140.14863)"
       x1="17.366333"
       y1="57.259781"
       x2="198.22202"
       y2="57.259781"
       gradientUnits="userSpaceOnUse">
      <stop
         offset="24%"
         stop-color="#05EEFF"
         id="stop2" />
      <stop
         offset="81.75%"
         stop-color="#00FFF0"
         id="stop4" />
    </linearGradient>
  </defs>
  <g
     id="layer1"
     stroke-miterlimit="10"
     transform="matrix(0.99172569,0,0,0.98645527,0.03816904,-0.00556039)">
    <path
       d="M 189.59431,111.37815 A 96.657963,94.632206 52.294769 0 1 77.947535,185.20006 96.657963,94.632206 52.294769 0 1 2.2167049,71.420351 96.657963,94.632206 52.294769 0 1 113.86241,-2.4015694 96.657963,94.632206 52.294769 0 1 189.59431,111.37815 Z"
       style="fill:url(#grad);stroke:url(#grad);stroke-width:1.06384"
       stroke-dasharray="2127.67"
       fill="url(#grad)"
       stroke="url(#grad)"
       id="circle" />
    <path
       d="m 74.269876,30.57425 a 10.039359,10.039449 0 0 0 -0.801063,0.05958 c -0.831914,-0.148937 -2.445744,0.06383 -5.178722,0.664899 -2.85851,0.627666 -5.852126,1.275543 -6.654254,1.441502 -1.685105,0.346812 -1.720212,0.580856 -1.761701,11.824572 -0.01383,3.797905 -0.05957,7.816025 -0.101064,8.929865 -0.04149,1.113839 0.09042,2.057464 0.292553,2.09789 0.09574,0.01915 0.560639,-0.500004 1.228723,-1.341501 0.02765,0.747879 0.139362,1.297883 0.292554,1.326608 0.202127,0.04042 2.012764,-2.258531 4.023402,-5.108556 1.475532,-2.090444 2.829787,-3.874501 3.523403,-4.667062 1.843618,0.932987 4.924467,3.046835 5.120212,3.630883 0.162766,0.487238 1.829787,2.265977 3.702126,3.953226 1.923405,1.729802 3.914893,4.196844 4.571276,5.662815 0.638297,1.428736 3.275531,6.777719 5.857445,11.887338 l 4.695744,9.29157 3.500003,0.751071 c 1.92553,0.413832 4.822337,1.212776 6.438287,1.775547 2.84681,0.991498 2.95745,1.117031 3.57766,4.055354 0.35106,1.667036 0.75851,5.88303 0.90425,9.369231 0.41809,10.042628 1.08511,20.367198 1.64575,25.477878 0.15426,1.41491 0.4383,4.72663 0.62978,7.35858 0.1915,2.63193 0.48405,5.94472 0.64894,7.36175 0.1649,1.41704 0.48617,4.73622 0.71489,7.3756 0.22873,2.64045 0.58086,6.39048 0.78193,8.33305 0.20212,1.94364 0.37446,4.47345 0.38616,5.62346 0.0106,1.15001 0.15958,1.99364 0.32979,1.87449 0.10957,-0.0766 0.48616,-2.32024 0.97766,-5.60644 0.11809,1.46384 0.20638,2.92343 0.21489,3.71812 0.0106,1.14894 0.15957,1.99363 0.32979,1.87342 0.31809,-0.22234 2.80745,-17.98526 4.20425,-30.00346 0.28085,-2.41172 0.63192,-4.6011 0.92766,-5.91068 0.37766,0.63511 0.80213,1.46171 1.21702,2.4064 3.06595,6.98517 4.27234,9.78732 5.46915,12.70011 0.6383,1.5532 1.25957,2.75534 1.38085,2.67023 0.0702,-0.0489 0.17341,-1.01064 0.2766,-2.37235 0.58617,1.39043 1.13191,2.43618 1.24468,2.35853 0.12127,-0.0851 0.33723,-2.67024 0.47979,-5.74474 0.23722,-5.09046 0.3585,-8.59156 0.94255,-27.11725 0.14254,-4.50855 0.21276,-6.38942 0.3851,-7.21177 1.70426,1.31491 5.34042,4.42132 9.40426,8.05539 5.4468,4.87132 10.01488,8.7788 10.14999,8.68306 0.0979,-0.0681 -0.0904,-0.54681 -0.77021,-1.82342 1.36171,1.15107 2.2351,1.84895 2.29255,1.80853 0.22872,-0.15958 -0.93404,-2.27981 -6.98298,-12.73842 -1.92553,-3.32981 -5.6702,-9.872418 -11.39573,-19.905481 -0.58937,-1.034051 -3.01596,-5.262812 -5.39043,-9.396891 a 1815.3336,1815.3498 0 0 1 -7.1234,-12.510747 c -1.54256,-2.747896 -3.03511,-5.328769 -3.31915,-5.735156 -0.28192,-0.406386 -2.08191,-3.554287 -4,-6.995805 -1.91702,-3.44152 -3.9,-6.61708 -4.40426,-7.057509 -0.90744,-0.791496 -9.446797,-3.559605 -19.310622,-6.258565 -5.088298,-1.39363 -13.12021,-5.088344 -14.238295,-6.550058 -0.185106,-0.242556 -0.605318,-0.359578 -1.329787,-0.344684 z"
       id="bird"
       inkscape:connector-curvature="0" />
  </g>
</svg>
